<svg width="100" height="100130" xmlns="http://www.w3.org/2000/svg">
<line x1="0" y1="0" x2="20" y2="0" stroke="black" stroke-width="1"/>
<line x1="0" y1="20" x2="0" y2="0" stroke="black" stroke-width="1"/>
<line x1="20" y1="0" x2="40" y2="0" stroke="black" stroke-width="1"/>
<line x1="40" y1="20" x2="20" y2="20" stroke="black" stroke-width="1"/>
<line x1="40" y1="0" x2="60" y2="0" stroke="black" stroke-width="1"/>
<line x1="60" y1="0" x2="80" y2="0" stroke="black" stroke-width="1"/>
<line x1="80" y1="0" x2="80" y2="20" stroke="black" stroke-width="1"/>
<line x1="80" y1="20" x2="60" y2="20" stroke="black" stroke-width="1"/>
<line x1="100" y1="0" x2="100" y2="20" stroke="black" stroke-width="1"/>
<line x1="80" y1="20" x2="80" y2="0" stroke="black" stroke-width="1"/>
<line x1="20" y1="20" x2="20" y2="40" stroke="black" stroke-width="1"/>
<line x1="0" y1="40" x2="0" y2="20" stroke="black" stroke-width="1"/>
<line x1="20" y1="20" x2="40" y2="20" stroke="black" stroke-width="1"/>
<line x1="40" y1="20" x2="40" y2="40" stroke="black" stroke-width="1"/>
<line x1="20" y1="40" x2="20" y2="20" stroke="black" stroke-width="1"/>
<line x1="60" y1="40" x2="40" y2="40" stroke="black" stroke-width="1"/>
<line x1="40" y1="40" x2="40" y2="20" stroke="black" stroke-width="1"/>
<line x1="60" y1="20" x2="80" y2="20" stroke="black" stroke-width="1"/>
<line x1="80" y1="40" x2="60" y2="40" stroke="black" stroke-width="1"/>
<line x1="100" y1="20" x2="100" y2="40" stroke="black" stroke-width="1"/>
<line x1="100" y1="40" x2="80" y2="40" stroke="black" stroke-width="1"/>
<line x1="20" y1="40" x2="20" y2="60" stroke="black" stroke-width="1"/>
<line x1="0" y1="60" x2="0" y2="40" stroke="black" stroke-width="1"/>
<line x1="40" y1="60" x2="20" y2="60" stroke="black" stroke-width="1"/>
<line x1="20" y1="60" x2="20" y2="40" stroke="black" stroke-width="1"/>
<line x1="40" y1="40" x2="60" y2="40" stroke="black" stroke-width="1"/>
<line x1="60" y1="40" x2="80" y2="40" stroke="black" stroke-width="1"/>
<line x1="80" y1="60" x2="60" y2="60" stroke="black" stroke-width="1"/>
<line x1="80" y1="40" x2="100" y2="40" stroke="black" stroke-width="1"/>
<line x1="100" y1="40" x2="100" y2="60" stroke="black" stroke-width="1"/>
<line x1="20" y1="80" x2="0" y2="80" stroke="black" stroke-width="1"/>
<line x1="0" y1="80" x2="0" y2="60" stroke="black" stroke-width="1"/>
<line x1="20" y1="60" x2="40" y2="60" stroke="black" stroke-width="1"/>
<line x1="40" y1="60" x2="40" y2="80" stroke="black" stroke-width="1"/>
<line x1="60" y1="60" x2="60" y2="80" stroke="black" stroke-width="1"/>
<line x1="60" y1="80" x2="40" y2="80" stroke="black" stroke-width="1"/>
<line x1="40" y1="80" x2="40" y2="60" stroke="black" stroke-width="1"/>
<line x1="60" y1="60" x2="80" y2="60" stroke="black" stroke-width="1"/>
<line x1="60" y1="80" x2="60" y2="60" stroke="black" stroke-width="1"/>
<line x1="100" y1="60" x2="100" y2="80" stroke="black" stroke-width="1"/>
<line x1="0" y1="80" x2="20" y2="80" stroke="black" stroke-width="1"/>
<line x1="20" y1="100" x2="0" y2="100" stroke="black" stroke-width="1"/>
<line x1="0" y1="100" x2="0" y2="80" stroke="black" stroke-width="1"/>
<line x1="40" y1="100" x2="20" y2="100" stroke="black" stroke-width="1"/>
<line x1="40" y1="80" x2="60" y2="80" stroke="black" stroke-width="1"/>
<line x1="60" y1="100" x2="40" y2="100" stroke="black" stroke-width="1"/>
<line x1="80" y1="80" x2="80" y2="100" stroke="black" stroke-width="1"/>
<line x1="100" y1="80" x2="100" y2="100" stroke="black" stroke-width="1"/>
<line x1="100" y1="100" x2="80" y2="100" stroke="black" stroke-width="1"/>
<line x1="80" y1="100" x2="80" y2="80" stroke="black" stroke-width="1"/>
</svg>
